<?xml version="1.0" encoding="utf-8"?>
<!-- Generator: Adobe Illustrator 27.5.0, SVG Export Plug-In . SVG Version: 6.00 Build 0)  -->
<svg version="1.1" xmlns="http://www.w3.org/2000/svg" xmlns:xlink="http://www.w3.org/1999/xlink" x="0px" y="0px"
	 viewBox="0 0 500 500" style="enable-background:new 0 0 500 500;" xml:space="preserve">
<g id="BACKGROUND">
	<rect style="fill:#FFF6EE;" width="500" height="500"/>
</g>
<g id="OBJECTS">
	<circle style="fill:#FCE1D0;" cx="250" cy="250" r="212.083"/>
	<g>
		<path style="fill:#FFF6EE;" d="M427.732,222.192c-11.08-23.2-34.22-39.15-60.43-34.52c-7.59,1.34-14.41,4.04-20.55,7.73
			c-0.01-5.04-0.15-8.11-0.2-9.02c-0.01-0.19-0.02-0.28-0.02-0.28c0,0.12-0.01,0.24-0.03,0.37c-0.1,0.64-0.46,1.27-1.06,1.88
			c-7.83,8.04-56.92,14.22-116.3,14.22c-64.82,0-117.38-7.37-117.38-16.47c0,0-4.01,60.67,21.01,151.82
			c5.99,21.84,13.65,45.43,23.43,70.35c1.61,4.11,4.6,7.52,8.47,9.63c9.18,4.99,29.12,12.76,64.47,12.76s55.29-7.77,64.47-12.76
			c3.88-2.12,6.86-5.53,8.48-9.64c2.07-5.29,4.05-10.51,5.94-15.67c5.69,6.83,15.54,9.88,24.77,4.58c8.7-4.99,6.9-15.1,0.95-20.11
			c4.32-1.87,8.97-3.3,13.28-5.16c11.96-5.18,23.6-11.04,34.34-18.47c20.33-14.04,38.27-33.15,47.48-56.38
			C438.452,272.832,439.072,245.962,427.732,222.192z M339.852,347.952c-6.18,2.7-13.26,4.89-19.56,8.03
			c16.03-52.67,22.48-96.56,24.97-126.53c7.18-8.96,16.08-15.97,27.61-17.52c20.46-2.76,33.59,17.07,37.38,36.01
			C419.552,294.512,378.292,331.152,339.852,347.952z"/>
		<path style="fill:#F9EADE;" d="M427.732,222.192c-11.08-23.2-34.22-39.15-60.43-34.52c-7.59,1.34-14.41,4.04-20.55,7.73
			c-0.01-5.04-0.15-8.11-0.2-9.02c-0.01,0.03-0.03,0.06-0.05,0.09c-0.34,0.63-0.69,1.25-1.06,1.88
			c-37.81,66.94-100.1,117.85-174.34,140.55c-12.61,3.85-25.4,6.86-38.33,9.02c5.99,21.84,13.65,45.43,23.43,70.35
			c1.61,4.11,4.6,7.52,8.47,9.63c9.18,4.99,29.12,12.76,64.47,12.76s55.29-7.77,64.47-12.76c3.88-2.12,6.86-5.53,8.48-9.64
			c2.07-5.29,4.05-10.51,5.94-15.67c5.69,6.83,15.54,9.88,24.77,4.58c8.7-4.99,6.9-15.1,0.95-20.11c4.32-1.87,8.97-3.3,13.28-5.16
			c11.96-5.18,23.6-11.04,34.34-18.47c20.33-14.04,38.27-33.15,47.48-56.38C438.452,272.832,439.072,245.962,427.732,222.192z
			 M339.852,347.952c-6.18,2.7-13.26,4.89-19.56,8.03c16.03-52.67,22.48-96.56,24.97-126.53c7.18-8.96,16.08-15.97,27.61-17.52
			c20.46-2.76,33.59,17.07,37.38,36.01C419.552,294.512,378.292,331.152,339.852,347.952z"/>
		<g>
			<path style="fill:#FFF6EE;" d="M346.528,186.098c0,3.12-6.17,6.03-16.88,8.51c-20-5.07-58.55-8.51-102.81-8.51
				c-42.62,0-79.93,3.19-100.5,7.96c-9.29-2.36-14.58-5.07-14.58-7.96c0-9.1,52.56-16.47,117.38-16.47
				C293.968,169.628,346.528,176.998,346.528,186.098z"/>
			<path style="fill:#492E27;" d="M329.648,196.108c-0.124,0-0.248-0.015-0.369-0.046c-20.594-5.221-59.847-8.464-102.441-8.464
				c-40.712,0-79.091,3.035-100.161,7.921c-0.233,0.053-0.476,0.051-0.708-0.008c-10.719-2.723-15.711-5.714-15.711-9.414
				c0-13.184,71.094-17.97,118.88-17.97c47.79,0,118.89,4.786,118.89,17.97c0,3.953-5.733,7.122-18.042,9.972
				C329.875,196.095,329.761,196.108,329.648,196.108z M226.838,184.598c42.582,0,81.913,3.242,102.824,8.467
				c14.931-3.504,15.366-6.621,15.366-6.967c0-2.05-6.97-6.498-33.092-10.162c-22.102-3.1-51.507-4.808-82.798-4.808
				c-31.286,0-60.688,1.708-82.789,4.808c-26.122,3.665-33.091,8.112-33.091,10.162c0,0.313,0.371,3.134,13.099,6.417
				C148.012,187.555,185.522,184.598,226.838,184.598z"/>
		</g>
		<path style="fill:#492E27;" d="M229.138,432.157c-36.033,0-56.304-8.108-65.18-12.941c-4.16-2.265-7.41-5.956-9.151-10.393
			c-50.142-127.782-44.607-221.889-44.545-222.824c0.053-0.809,0.762-1.44,1.546-1.4c0.809,0.026,1.451,0.69,1.451,1.499
			c0,2.05,6.969,6.498,33.091,10.162c22.101,3.101,51.503,4.808,82.789,4.808c31.291,0,60.695-1.708,82.798-4.808
			c26.123-3.665,33.092-8.112,33.092-10.162c0-0.81,0.642-1.473,1.451-1.499c0.796-0.047,1.493,0.594,1.546,1.401
			c0.007,0.113,0.155,2.43,0.206,6.818c5.928-3.242,12.242-5.468,18.806-6.627c24.908-4.406,49.844,9.805,62.044,35.35c0,0,0,0,0,0
			c11.027,23.115,11.439,50.126,1.16,76.059c-10.783,27.198-32.066,46.042-48.022,57.062c-9.569,6.62-20.563,12.534-34.596,18.612
			c-2.183,0.941-4.468,1.781-6.678,2.594c-1.498,0.551-3.03,1.113-4.53,1.709c2.721,3.097,4.151,7.142,3.804,11.014
			c-0.369,4.112-2.74,7.621-6.676,9.878c-9.555,5.489-19.03,2.583-24.948-3.078c-1.641,4.44-3.356,8.943-5.111,13.416
			c-1.746,4.448-4.997,8.145-9.156,10.409C285.453,424.049,265.18,432.157,229.138,432.157z M113.103,190.442
			c-0.426,19.651,0.614,105.458,44.496,217.285c1.484,3.781,4.251,6.926,7.793,8.854c8.626,4.697,28.377,12.576,63.746,12.576
			c35.378,0,55.131-7.879,63.757-12.576c3.541-1.928,6.31-5.078,7.798-8.87c2.049-5.221,4.042-10.482,5.927-15.638
			c0.184-0.504,0.623-0.871,1.152-0.963c0.527-0.098,1.066,0.104,1.409,0.518c4.873,5.849,13.835,9.43,22.871,4.239
			c3.107-1.782,4.898-4.391,5.182-7.545c0.323-3.598-1.424-7.568-4.451-10.117c-0.397-0.335-0.593-0.852-0.518-1.365
			c0.075-0.514,0.411-0.952,0.888-1.159c2.21-0.957,4.523-1.807,6.759-2.628c2.172-0.799,4.417-1.624,6.522-2.532
			c13.846-5.997,24.676-11.82,34.081-18.326c15.615-10.784,36.433-29.2,46.939-55.699c9.967-25.146,9.583-51.309-1.079-73.661l0,0
			c-11.612-24.313-35.244-37.853-58.816-33.689c-7.041,1.243-13.783,3.779-20.038,7.538c-0.462,0.279-1.04,0.286-1.51,0.021
			c-0.471-0.266-0.762-0.764-0.763-1.304c-0.003-1.954-0.028-3.613-0.059-4.962c-13.688,9.911-73.926,13.63-116.051,13.63
			C187.021,204.068,126.801,200.351,113.103,190.442z M320.288,357.477c-0.348,0-0.692-0.121-0.969-0.354
			c-0.458-0.387-0.641-1.009-0.466-1.582c16.398-53.88,22.597-98.377,24.91-126.217c0.024-0.298,0.137-0.581,0.324-0.814
			c8.598-10.729,17.946-16.639,28.581-18.069c21.143-2.849,35.065,17.285,39.051,37.202c4.291,21.484-1.798,43.066-17.607,62.413
			c-12.961,15.862-32.019,29.807-53.664,39.267v0.001c-2.542,1.109-5.278,2.152-7.925,3.16c-3.878,1.477-7.89,3.005-11.566,4.837
			C320.745,357.426,320.516,357.477,320.288,357.477z M346.714,230.031c-2.308,27.454-8.357,70.769-24.02,123.163
			c2.885-1.277,5.859-2.41,8.761-3.515c2.733-1.041,5.316-2.024,7.792-3.106l0,0c37.832-16.535,78.742-52.212,69.53-98.342
			c-3.719-18.587-16.484-37.404-35.708-34.817C363.35,214.721,354.726,220.158,346.714,230.031z M339.848,347.948h0.01H339.848z"/>
		<g>
			<path style="fill:#492E27;" d="M329.648,194.608c-20.57,4.77-57.89,7.96-100.51,7.96c-44.26,0-82.8-3.44-102.8-8.51
				c20.57-4.77,57.88-7.96,100.5-7.96C271.098,186.098,309.648,189.538,329.648,194.608z"/>
			<path style="fill:#492E27;" d="M229.138,204.068c-42.818,0-82.351-3.279-103.168-8.556c-0.671-0.17-1.138-0.777-1.131-1.469
				c0.007-0.692,0.487-1.29,1.161-1.446c21.599-5.008,59.295-7.999,100.839-7.999c42.825,0,82.361,3.278,103.179,8.556
				c0.671,0.17,1.138,0.777,1.131,1.469c-0.007,0.692-0.487,1.29-1.161,1.446C308.388,201.078,270.687,204.068,229.138,204.068z
				 M133.465,194.117c21.758,4.327,57.366,6.951,95.672,6.951c36.667,0,71.44-2.461,93.382-6.519
				c-21.759-4.327-57.37-6.951-95.682-6.951C190.176,187.598,155.407,190.059,133.465,194.117z"/>
		</g>
		<g>
			<path style="fill:#DB8C82;" d="M231.696,371.919c-1.738,0.805-3.758,0.805-5.496,0c-61.835-28.678-59.108-72.008-59.108-72.008
				c-1.26-35.825,43.177-52.58,60.871-21.445c0.448,0.75,1.523,0.75,1.972-0.002c6-10.053,16.101-16.651,27.547-16.651
				C302.211,266.759,310.706,333.872,231.696,371.919z"/>
			<path style="fill:#492E27;" d="M228.948,374.025c-1.152,0-2.305-0.248-3.378-0.745c-32.342-14.999-46.923-34.088-53.459-47.46
				c-6.906-14.126-6.575-24.822-6.52-25.924c-0.702-20.825,12.908-34.091,26.721-38.002c11.516-3.261,27.121-0.921,36.644,15.293
				c6.526-10.578,17.149-16.873,28.526-16.873c0.055,0,0.11,0.003,0.165,0.009c18.227,2.015,31.422,14.219,34.437,31.849
				c3.813,22.305-9.543,56.928-59.736,81.098c-0.007,0.003-0.014,0.007-0.021,0.01C231.253,373.777,230.1,374.025,228.948,374.025z
				 M231.696,371.919h0.01H231.696z M201.344,263.637c-2.872,0-5.655,0.418-8.215,1.143c-12.702,3.597-25.215,15.839-24.538,35.079
				c0.002,0.049,0.001,0.098-0.002,0.147c-0.006,0.104-0.554,10.747,6.305,24.677c6.342,12.881,20.501,31.297,51.937,45.876
				c1.342,0.62,2.882,0.623,4.226,0.003c48.683-23.446,61.707-56.607,58.069-77.883c-2.774-16.229-14.928-27.474-31.726-29.364
				c-10.461,0.031-20.243,5.977-26.177,15.919c-0.484,0.811-1.334,1.295-2.274,1.295h0c-0.94,0-1.79-0.483-2.273-1.293
				C220.123,267.709,210.305,263.637,201.344,263.637z"/>
		</g>
		<g>
			<g>
				<path style="fill:#492E27;" d="M240.614,183.618c-0.71,0-1.342-0.507-1.474-1.231c-1.525-8.371-0.184-17.129,3.775-24.661
					c3.959-7.532,10.414-13.602,18.174-17.091c3.202-1.439,6.625-2.449,9.937-3.426c5.776-1.704,11.232-3.313,15.491-6.997
					c5.229-4.523,7.73-11.576,9.487-17.877c0.311-1.115,0.61-2.237,0.91-3.361c1.556-5.836,3.165-11.87,6.493-17.109
					c2.761-4.347,6.79-7.963,11.653-10.459c0.736-0.377,1.641-0.088,2.02,0.649c0.378,0.737,0.087,1.641-0.649,2.02
					c-4.388,2.252-8.016,5.502-10.491,9.398c-3.081,4.85-4.629,10.657-6.126,16.273c-0.303,1.135-0.605,2.269-0.919,3.395
					c-1.877,6.733-4.583,14.296-10.414,19.34c-4.75,4.109-10.777,5.886-16.605,7.605c-3.215,0.948-6.54,1.929-9.555,3.285
					c-7.152,3.216-13.1,8.81-16.749,15.75c-3.649,6.941-4.885,15.013-3.479,22.727c0.148,0.815-0.392,1.596-1.207,1.745
					C240.794,183.61,240.704,183.618,240.614,183.618z"/>
			</g>
			<g>
				<path style="fill:#492E27;" d="M212.525,167.01c-0.71,0-1.342-0.507-1.474-1.231c-1.525-8.372-0.185-17.13,3.775-24.661
					S225.24,127.516,233,124.026c3.201-1.439,6.625-2.449,9.936-3.425c5.776-1.704,11.233-3.313,15.492-6.997
					c5.229-4.523,7.73-11.575,9.487-17.877c0.311-1.115,0.61-2.238,0.91-3.362c1.556-5.835,3.164-11.869,6.492-17.108
					c2.762-4.347,6.791-7.964,11.653-10.459c0.736-0.377,1.641-0.088,2.02,0.649s0.087,1.641-0.649,2.02
					c-4.388,2.252-8.016,5.502-10.491,9.398c-3.081,4.85-4.628,10.657-6.125,16.272c-0.303,1.135-0.605,2.27-0.919,3.396
					c-1.877,6.733-4.583,14.296-10.414,19.34c-4.751,4.109-10.778,5.887-16.606,7.605c-3.215,0.948-6.539,1.928-9.554,3.284
					c-7.152,3.216-13.1,8.81-16.75,15.751c-3.649,6.94-4.884,15.012-3.479,22.727c0.148,0.815-0.392,1.596-1.207,1.745
					C212.705,167.001,212.614,167.01,212.525,167.01z"/>
			</g>
			<g>
				<path style="fill:#492E27;" d="M181.941,150.345c-0.71,0-1.342-0.507-1.474-1.231c-1.525-8.372-0.185-17.13,3.775-24.661
					c3.96-7.532,10.415-13.602,18.174-17.091c3.202-1.439,6.625-2.449,9.937-3.426c5.776-1.704,11.232-3.313,15.491-6.997
					c5.229-4.523,7.73-11.575,9.488-17.877c0.311-1.116,0.61-2.239,0.91-3.364c1.556-5.834,3.164-11.868,6.492-17.107
					c3.675-5.785,9.541-10.216,16.517-12.479c0.789-0.254,1.634,0.176,1.89,0.964c0.256,0.788-0.176,1.634-0.964,1.89
					c-6.314,2.048-11.609,6.038-14.911,11.234c-3.08,4.849-4.628,10.656-6.125,16.271c-0.303,1.136-0.605,2.27-0.919,3.396
					c-1.877,6.733-4.583,14.296-10.415,19.34c-4.75,4.109-10.777,5.887-16.605,7.605c-3.215,0.948-6.54,1.929-9.555,3.285
					c-7.151,3.216-13.1,8.81-16.75,15.751c-3.648,6.94-4.884,15.012-3.479,22.728c0.148,0.815-0.392,1.596-1.207,1.744
					C182.121,150.336,182.031,150.345,181.941,150.345z"/>
			</g>
		</g>
		<g>
			<path style="fill:#492E27;" d="M338.746,227.516c-0.633,0-1.221-0.404-1.426-1.038c-3.108-9.594-1.375-20.635,4.523-28.814
				c0.485-0.671,1.421-0.824,2.094-0.339c0.672,0.485,0.824,1.422,0.339,2.094c-5.35,7.419-6.922,17.433-4.103,26.135
				c0.255,0.788-0.176,1.634-0.964,1.889C339.055,227.492,338.899,227.516,338.746,227.516z"/>
		</g>
		<g>
			<path style="fill:#492E27;" d="M307.558,389.604c-0.62,0-1.2-0.387-1.416-1.005c-1.879-5.373-1.964-11.321-0.24-16.746
				c1.725-5.427,5.228-10.233,9.864-13.535c0.675-0.482,1.612-0.323,2.092,0.352c0.48,0.675,0.323,1.611-0.352,2.092
				c-4.11,2.928-7.216,7.189-8.745,12c-1.529,4.811-1.454,10.083,0.212,14.848c0.273,0.782-0.139,1.638-0.921,1.911
				C307.89,389.578,307.722,389.604,307.558,389.604z"/>
		</g>
		<g>
			<path style="fill:#492E27;" d="M169.341,414.631c-0.544,0-1.07-0.297-1.335-0.814c-10.901-21.208-18.527-43.867-22.665-67.349
				c-0.144-0.816,0.401-1.594,1.217-1.737c0.816-0.146,1.594,0.401,1.737,1.217c4.086,23.185,11.616,45.558,22.379,66.498
				c0.379,0.736,0.088,1.641-0.648,2.02C169.806,414.578,169.571,414.631,169.341,414.631z"/>
		</g>
		<g>
			<path style="fill:#492E27;" d="M175.726,411.521c-0.55,0-1.081-0.304-1.343-0.83c-3.757-7.524-6.673-15.483-8.667-23.656
				c-0.196-0.805,0.297-1.616,1.102-1.813c0.806-0.198,1.616,0.297,1.813,1.102c1.94,7.955,4.779,15.702,8.436,23.027
				c0.37,0.741,0.069,1.642-0.672,2.012C176.181,411.471,175.952,411.521,175.726,411.521z"/>
		</g>
		<g>
			<path style="fill:#492E27;" d="M251.663,352.738c-0.436,0-0.869-0.189-1.165-0.554c-0.522-0.644-0.425-1.588,0.218-2.11
				c12.062-9.803,21.707-22.52,27.894-36.776c0.33-0.76,1.214-1.108,1.973-0.779c0.76,0.33,1.108,1.213,0.779,1.973
				c-6.377,14.696-16.32,27.805-28.753,37.91C252.33,352.628,251.996,352.738,251.663,352.738z"/>
		</g>
		<g>
			<path style="fill:#492E27;" d="M236.501,363.528c-0.501,0-0.991-0.251-1.275-0.707c-0.438-0.704-0.223-1.629,0.481-2.066
				c2.354-1.465,4.588-3.155,6.64-5.024c0.611-0.559,1.56-0.513,2.119,0.1c0.558,0.612,0.514,1.561-0.099,2.119
				c-2.186,1.99-4.566,3.792-7.075,5.353C237.045,363.455,236.771,363.528,236.501,363.528z"/>
		</g>
		<path style="fill:#D9A39A;" d="M203.044,267.595c-21.22,1.752-35.891,23.115-27.674,43.425c3.598,8.893,17.991,4.641,14.37-4.309
			c-4.411-10.904,1.489-23.107,13.827-24.125C213.171,281.793,212.69,266.799,203.044,267.595z"/>
		<path style="fill:#D9A39A;" d="M189.535,320.989c-9.674,0-9.126,14.991,0.523,14.991
			C199.733,335.979,199.185,320.989,189.535,320.989z"/>
	</g>
</g>
</svg>
